PathFileType	4	(X/Y/Z)	/Users/niels/Desktop/University/Third Semester/Perception and Action/Exam/Gymnastics Motion Tracking/Code for Gym Tracking/Analyzed Data/Webcam_Backflip/id2_1_baseline_Sports2D/id2_1_baseline_Sports2D_px_person00.trc
DataRate	CameraRate	NumFrames	NumMarkers	Units	OrigDataRate	OrigDataStartFrame	OrigNumFrames
29.92207792207792	29.92207792207792	9	22	m	29.92207792207792	192	385
Frame#	Time	Hip			RHip			RKnee			RAnkle			RBigToe			RSmallToe			RHeel			LHip			LKnee			LAnkle			LBigToe			LSmallToe			LHeel			Neck			Head			Nose			RShoulder			RElbow			RWrist			LShoulder			LElbow			LWrist		
		X1	Y1	Z1	X2	Y2	Z2	X3	Y3	Z3	X4	Y4	Z4	X5	Y5	Z5	X6	Y6	Z6	X7	Y7	Z7	X8	Y8	Z8	X9	Y9	Z9	X10	Y10	Z10	X11	Y11	Z11	X12	Y12	Z12	X13	Y13	Z13	X14	Y14	Z14	X15	Y15	Z15	X16	Y16	Z16	X17	Y17	Z17	X18	Y18	Z18	X19	Y19	Z19	X20	Y20	Z20	X21	Y21	Z21	X22	Y22	Z22
192	6.416666666666666	1.0626271510604008	-0.45758720059193775	0.0	1.0890864547555839	-0.4486834946757559	0.0	1.2833614069469246	-0.5928377361709184	0.0	1.4498578649219376	-0.7563885322550776	0.0	1.5412096195410028	-0.7222604467493192	0.0	1.5430674185786621	-0.7486340089385781	0.0	1.458288768466779	-0.7923623570498451	0.0	1.0447278361448762	-0.4577859619602193	0.0	1.0984376159619178	-0.7064431195582432	0.0	1.0512681032371518	-0.9317007925676852	0.0	1.1368222453987222	-0.9488482051641188	0.0	1.112858859777851	-0.9489287153524373	0.0	1.0311878002467731	-0.9576858231537438	0.0	0.980982290601746	-0.1484091108190179	0.0	0.9738547388327236	0.010038155757603693	0.0	1.0095579929915817	-0.07795287213337623	0.0	0.9981970801679138	-0.18164676319454845	0.0	1.1466603554013564	-0.10300862571701373	0.0	1.1241643107883523	-0.0002076986237508588	0.0	0.9520784949199018	-0.1937255363088805	0.0	1.0326076306338778	-0.3041346755743762	0.0	1.105846597915682	-0.3754158423436102	0.0
193	6.450086805555555	1.060037870331489	-0.45575240420836016	0.0	1.086630926696043	-0.4462488648231227	0.0	1.2847269801725483	-0.5906240565811183	0.0	1.4664044988890577	-0.7449701985689212	0.0	1.5576765641810006	-0.7019300033661707	0.0	1.5602086605007894	-0.729492340290681	0.0	1.4776759818781036	-0.7810835773358632	0.0	1.0404544436002696	-0.45604263799420375	0.0	1.0964976147693455	-0.7061263739292226	0.0	1.051099466195328	-0.9329396040792528	0.0	1.137053235820791	-0.9481013148141926	0.0	1.110851674558857	-0.9488060747371653	0.0	1.0314983887744542	-0.9585356951667046	0.0	0.9716699051761543	-0.14941384822030465	0.0	0.9652170290968444	0.009064278035546366	0.0	1.0014312588860654	-0.07892132660096833	0.0	0.9916755751880564	-0.18130720622147584	0.0	1.1363028217579905	-0.0973098794808803	0.0	1.1109724976834228	0.006495047998940825	0.0	0.9428482214055525	-0.1950033363443716	0.0	1.0322879592734981	-0.3019198682797247	0.0	1.1043573813714407	-0.3962233182041195	0.0
194	6.483506944444445	1.056549170226919	-0.4550906740884197	0.0	1.0834931725246124	-0.4450927615313342	0.0	1.2832104026456537	-0.5910848507933051	0.0	1.474645859994706	-0.7401813559502387	0.0	1.566483157706605	-0.6912216446781553	0.0	1.5693551465412736	-0.719575297955311	0.0	1.4875895819334792	-0.7760514056602199	0.0	1.035807904853981	-0.45556726759884336	0.0	1.0946507026472332	-0.7054000967110916	0.0	1.0511365141314406	-0.9338467443406134	0.0	1.1375521284312575	-0.9467146693206662	0.0	1.110894376384538	-0.9481878162422097	0.0	1.0320561414229898	-0.9591236573534946	0.0	0.9635333273307183	-0.15058727692301754	0.0	0.958202682508215	0.007884791345229283	0.0	0.9946469671502121	-0.08015627393234553	0.0	0.9856963246503853	-0.18092961002718969	0.0	1.1278160261432888	-0.09350025035918787	0.0	1.0999008691752217	0.011580650732782959	0.0	0.9345205816142134	-0.19602876743659353	0.0	1.0294457839951747	-0.30000208542421647	0.0	1.1034517858686914	-0.40329186484025703	0.0
195	6.516927083333333	1.0522326790367595	-0.4555008242202076	0.0	1.0796376853779093	-0.4452058761728645	0.0	1.2792197801578373	-0.5942753978626403	0.0	1.4736683707800429	-0.7438944710652243	0.0	1.5671981636373769	-0.692592676170332	0.0	1.5698364177468715	-0.7215067114199624	0.0	1.4869555737995086	-0.7795999916023989	0.0	1.0312563655005382	-0.456103002339811	0.0	1.092693059228282	-0.7045570876545152	0.0	1.0513161558926087	-0.934353091270303	0.0	1.1380427578457077	-0.9453320393604746	0.0	1.1128065963851168	-0.947407982349313	0.0	1.0329094814794806	-0.9594324485939693	0.0	0.9566855983907016	-0.15158352804029065	0.0	0.9521363952488847	0.007024347847237806	0.0	0.9885743732915134	-0.08124692434463567	0.0	0.9797284776339579	-0.18078763504596135	0.0	1.121022183459544	-0.09165545256041459	0.0	1.091323503404631	0.014565395954794648	0.0	0.9274561789095441	-0.1966646659479811	0.0	1.024776806226169	-0.29932432885793586	0.0	1.1017049180313288	-0.40290387036620307	0.0
196	6.550347222222222	1.0471688975520566	-0.45666754774604923	0.0	1.0750065496659857	-0.4462238562962268	0.0	1.2731334544691215	-0.5998189768897189	0.0	1.4619573667669026	-0.7569335159633976	0.0	1.5582051986173975	-0.707986605907233	0.0	1.5597358244009305	-0.737017243430643	0.0	1.4741384954118069	-0.7929062069371694	0.0	1.0267722824926058	-0.4571426976289447	0.0	1.0904759112257891	-0.7039163845513836	0.0	1.05155954744927	-0.9343452062512307	0.0	1.1382442441255927	-0.9445088065368256	0.0	1.1158099759660636	-0.9467261922752133	0.0	1.0338980018464494	-0.9594238975289271	0.0	0.951089001770944	-0.15210191669956644	0.0	0.9465580770516386	0.006858422094720624	0.0	0.9826710755834225	-0.0818014554905649	0.0	0.9732062682855505	-0.18114171990526076	0.0	1.1156277874450165	-0.09199799604864188	0.0	1.0858294062301528	0.014957630907607733	0.0	0.9217638060588977	-0.19676298694409808	0.0	1.0189134744238333	-0.2995396773554353	0.0	1.0981071580963777	-0.3991645243862072	0.0
197	6.583767361111111	1.041492204997165	-0.4582231758468788	0.0	1.0694334320528556	-0.4477830429128699	0.0	1.2649709439140966	-0.607076709451768	0.0	1.437648382753073	-0.7785225553302256	0.0	1.5370816137210792	-0.7373141509741454	0.0	1.536413266112758	-0.7657427894932857	0.0	1.4471658802247587	-0.8151295929224429	0.0	1.0221276155559338	-0.4583014524697056	0.0	1.0879754214583868	-0.7034705298605655	0.0	1.051785698202027	-0.9337293731900649	0.0	1.1381087289362462	-0.9443382304324625	0.0	1.1188980297096036	-0.9461866123007572	0.0	1.0346180818221233	-0.9590580094313998	0.0	0.9465201832723692	-0.15200399499192196	0.0	0.9413542115863195	0.007515661795494423	0.0	0.9768400629693081	-0.08161647968214086	0.0	0.9657748615187773	-0.18196157756317266	0.0	1.1113227790346605	-0.09475817291127107	0.0	1.0838553669631636	0.012764288910079769	0.0	0.9173094075443288	-0.196164232281363	0.0	1.0124040966487786	-0.2996338105085471	0.0	1.0922083094578785	-0.3925670347502984	0.0
198	6.6171875	1.0353758056286477	-0.459885521072976	0.0	1.0626919756361346	-0.44961457645360037	0.0	1.2543581212563533	-0.6155298978392081	0.0	1.3995562051854824	-0.8062841441106586	0.0	1.501531400817126	-0.7777942006762962	0.0	1.4977591975523434	-0.8048635487392034	0.0	1.40481771383594	-0.8433878142088718	0.0	1.0170002565415146	-0.4593859568493633	0.0	1.08532896448562	-0.7027060342426924	0.0	1.0519270863288863	-0.93242357900579	0.0	1.1377894489459828	-0.9444182676223898	0.0	1.1210418405002713	-0.9456301836826023	0.0	1.0345983663490363	-0.9582298790168913	0.0	0.9425712299748075	-0.15129540820880166	0.0	0.9366862523949311	0.00888571977914988	0.0	0.9714341742095886	-0.08071284053223307	0.0	0.9577759654129803	-0.1828432283679924	0.0	1.1078713871316686	-0.09999440337213018	0.0	1.085562017344527	0.00847508371782033	0.0	0.9135760635932914	-0.19474993817853892	0.0	1.0057413756935412	-0.29810229855354176	0.0	1.084249627817089	-0.3797114339253092	0.0
199	6.650607638888888	1.0289701362390045	-0.46148920124394716	0.0	1.0545488411851411	-0.4514298815722217	0.0	1.240596118369758	-0.6249966920393478	0.0	1.347932490954901	-0.8366775107634622	0.0	1.4504460935640142	-0.8244826474982069	0.0	1.4432159236050537	-0.8495338048658564	0.0	1.3474775797015133	-0.8734616822427241	0.0	1.0112435031646434	-0.4601794994951757	0.0	1.0829211392568816	-0.7007222308845488	0.0	1.0519442994664137	-0.9302112465188075	0.0	1.1374629294773557	-0.9442125638800379	0.0	1.1215711024558614	-0.9448202306055825	0.0	1.0336462331207013	-0.9566518677178593	0.0	0.9387439074130939	-0.150013990343817	0.0	0.9326786790223557	0.010736578799300386	0.0	0.9668217466737823	-0.0792396048945578	0.0	0.9501357968294346	-0.18333484000407774	0.0	1.105086832373661	-0.10766266178105256	0.0	1.0909373309201325	0.002606295504814247	0.0	0.909802672461543	-0.19248174438555787	0.0	0.9998372611232523	-0.2929833233228533	0.0	1.0754196717848648	-0.3551536128511931	0.0
200	6.684027777777778	1.0223765912398692	-0.46295165847070363	0.0	1.0448649722972463	-0.4529841320994102	0.0	1.222789376774718	-0.635617078573675	0.0	1.2845682580470468	-0.8657865533495396	0.0	1.384736510158134	-0.8715443835993428	0.0	1.374126240487827	-0.8939442565789748	0.0	1.277352972116456	-0.9009704593468912	0.0	1.0054158169697645	-0.460390674270111	0.0	1.0814520496530804	-0.6967578136073429	0.0	1.0518407138844117	-0.9268164462794011	0.0	1.1373342636015644	-0.9435103978568593	0.0	1.12071525296231	-0.9436438488732706	0.0	1.032012556617192	-0.9539706347356175	0.0	0.9346313503733825	-0.14816079524075426	0.0	0.9291320845560417	0.012809121263616018	0.0	0.9629625225283512	-0.07734257615261728	0.0	0.9434664447587235	-0.18326682023124777	0.0	1.1026596600094158	-0.1178178344219354	0.0	1.0998644166540574	-0.00475976202487127	0.0	0.9055065801543846	-0.18938291432682403	0.0	0.996377684074533	-0.2823779431505231	0.0	1.0678422377230374	-0.3147009346740027	0.0
